<svg width="53" height="56" viewBox="0 0 53 56" fill="none" xmlns="http://www.w3.org/2000/svg">
<rect width="53" height="56" fill="white"/>
<g clip-path="url(#clip0_2573_7532)">
<path d="M26.5001 54.0011C40.8601 54.0011 52.5011 42.3601 52.5011 28.0001C52.5011 13.6401 40.8601 1.99902 26.5001 1.99902C12.1401 1.99902 0.499023 13.6401 0.499023 28.0001C0.499023 42.3601 12.1401 54.0011 26.5001 54.0011Z" fill="#624DE3"/>
<path d="M36.796 10.6211H16.2033C15.7971 10.6211 15.4678 10.9504 15.4678 11.3567V13.4382C15.4678 13.8444 15.7971 14.1738 16.2033 14.1738H36.796C37.2023 14.1738 37.5316 13.8444 37.5316 13.4382V11.3567C37.5316 10.9504 37.2023 10.6211 36.796 10.6211Z" fill="white"/>
<path d="M35.9366 13.0431C36.3675 13.0431 36.7169 12.6937 36.7169 12.2627C36.7169 11.8318 36.3675 11.4824 35.9366 11.4824C35.5056 11.4824 35.1562 11.8318 35.1562 12.2627C35.1562 12.6937 35.5056 13.0431 35.9366 13.0431Z" fill="#7369F9"/>
<path d="M36.2845 11.9765L36.2305 11.9185L35.9284 12.1983L35.6364 11.9053L35.5794 11.9612L35.8694 12.2522L35.5713 12.5269L35.6252 12.5849L35.9253 12.3082L36.2163 12.5981L36.2723 12.5422L35.9843 12.2542L36.2845 11.9765Z" fill="white"/>
<path d="M28.0002 11.8506H16.4286C16.3898 11.8506 16.3584 11.882 16.3584 11.9208V12.1802C16.3584 12.219 16.3898 12.2504 16.4286 12.2504H28.0002C28.039 12.2504 28.0704 12.219 28.0704 12.1802V11.9208C28.0704 11.882 28.039 11.8506 28.0002 11.8506Z" fill="#BFBDFF"/>
<path d="M28.0002 12.4629H16.4286C16.3898 12.4629 16.3584 12.4943 16.3584 12.5331V12.7925C16.3584 12.8313 16.3898 12.8627 16.4286 12.8627H28.0002C28.039 12.8627 28.0704 12.8313 28.0704 12.7925V12.5331C28.0704 12.4943 28.039 12.4629 28.0002 12.4629Z" fill="#BFBDFF"/>
<path d="M32.5683 11.8506H29.1825C29.0903 11.8506 29.0156 11.9253 29.0156 12.0174V12.7794C29.0156 12.8716 29.0903 12.9463 29.1825 12.9463H32.5683C32.6604 12.9463 32.7351 12.8716 32.7351 12.7794V12.0174C32.7351 11.9253 32.6604 11.8506 32.5683 11.8506Z" fill="#7369F9"/>
<path d="M15.0869 43.2779C15.0869 42.6725 15.1825 42.2178 15.3748 41.9166C15.4723 41.7768 15.6021 41.6627 15.7532 41.5839C15.9043 41.505 16.0722 41.4639 16.2427 41.4639C16.4131 41.4639 16.581 41.505 16.7321 41.5839C16.8832 41.6627 17.013 41.7768 17.1105 41.9166C17.3017 42.2191 17.3977 42.6736 17.3984 43.2799C17.3991 43.8863 17.3031 44.3397 17.1105 44.6401C17.0128 44.7797 16.883 44.8937 16.7319 44.9724C16.5808 45.0511 16.413 45.0921 16.2427 45.0921C16.0723 45.0921 15.9045 45.0511 15.7534 44.9724C15.6023 44.8937 15.4725 44.7797 15.3748 44.6401C15.1829 44.3363 15.0869 43.8822 15.0869 43.2779ZM16.2416 42.0489C16.0819 42.0489 15.9659 42.1455 15.8927 42.3409C15.8194 42.5362 15.7828 42.8496 15.7828 43.2779C15.7828 43.4135 15.7859 43.5346 15.792 43.6411L16.5977 42.3551L16.5926 42.3409C16.5194 42.1455 16.4024 42.0489 16.2416 42.0489V42.0489ZM15.8927 44.2118C15.9659 44.4072 16.0822 44.5048 16.2416 44.5048C16.401 44.5048 16.518 44.4072 16.5926 44.2118C16.6659 44.0175 16.7025 43.7031 16.7025 43.2779C16.7025 43.1151 16.6974 42.9727 16.6862 42.8424L15.8723 44.1447C15.8764 44.1691 15.8845 44.1915 15.8927 44.2118V44.2118Z" fill="white"/>
<path d="M17.9746 43.2779C17.9746 42.6725 18.0702 42.2178 18.2625 41.9166C18.36 41.7768 18.4898 41.6627 18.6409 41.5839C18.792 41.505 18.9599 41.4639 19.1303 41.4639C19.3008 41.4639 19.4687 41.505 19.6198 41.5839C19.7709 41.6627 19.9007 41.7768 19.9982 41.9166C20.1894 42.2191 20.2854 42.6736 20.2861 43.2799C20.2868 43.8863 20.1908 44.3397 19.9982 44.6401C19.9005 44.7797 19.7707 44.8937 19.6196 44.9724C19.4685 45.0511 19.3007 45.0921 19.1303 45.0921C18.96 45.0921 18.7922 45.0511 18.6411 44.9724C18.49 44.8937 18.3602 44.7797 18.2625 44.6401C18.0706 44.3363 17.9746 43.8822 17.9746 43.2779ZM19.1293 42.0489C18.9696 42.0489 18.8536 42.1455 18.7804 42.3409C18.7071 42.5362 18.6705 42.8496 18.6705 43.2779C18.6705 43.4135 18.6735 43.5346 18.6796 43.6411L19.4854 42.3551L19.4803 42.3409C19.4071 42.1455 19.2901 42.0489 19.1293 42.0489ZM18.7804 44.2118C18.8536 44.4072 18.9699 44.5048 19.1293 44.5048C19.2887 44.5048 19.4057 44.4072 19.4803 44.2118C19.5536 44.0175 19.5902 43.7031 19.5902 43.2779C19.5902 43.1151 19.5851 42.9727 19.5739 42.8424L18.76 44.1447C18.7641 44.1691 18.7722 44.1915 18.7804 44.2118Z" fill="white"/>
<path d="M21.625 42.5332H22.4074V43.3878H21.625V42.5332ZM21.625 44.161H22.4074V45.0207H21.625V44.161Z" fill="white"/>
<path d="M24.4773 44.4131H25.9494V45.0235H23.7295V44.4335L24.1049 44.0347C24.5498 43.5599 24.8211 43.2689 24.9188 43.1617C25.0176 43.0535 25.1026 42.9336 25.1721 42.8046C25.2208 42.7101 25.2473 42.6057 25.2494 42.4994C25.2535 42.4325 25.2428 42.3655 25.2182 42.3031C25.1936 42.2407 25.1557 42.1844 25.107 42.1383C24.9944 42.0464 24.8512 42.0006 24.7062 42.0101C24.5644 42.013 24.424 42.038 24.2901 42.0843C24.1228 42.1391 23.9616 42.2107 23.8088 42.298V41.654C23.9686 41.5953 24.1325 41.5488 24.2992 41.5146C24.4509 41.4838 24.6053 41.4678 24.7601 41.4668C25.1291 41.4668 25.4197 41.5529 25.632 41.7252C25.7362 41.81 25.8192 41.9181 25.8743 42.0406C25.9294 42.1632 25.9551 42.297 25.9494 42.4313C25.9502 42.5633 25.9268 42.6943 25.8802 42.8179C25.8205 42.9622 25.7403 43.0972 25.6422 43.2187C25.5594 43.3245 25.3325 43.5619 24.9615 43.9309C24.756 44.1323 24.5953 44.2931 24.4773 44.4131Z" fill="white"/>
<path d="M26.6367 43.2779C26.6367 42.6725 26.7324 42.2178 26.9246 41.9166C27.0221 41.7768 27.1519 41.6627 27.303 41.5839C27.4541 41.505 27.622 41.4639 27.7925 41.4639C27.9629 41.4639 28.1308 41.505 28.2819 41.5839C28.433 41.6627 28.5628 41.7768 28.6603 41.9166C28.8515 42.2191 28.9475 42.6736 28.9482 43.2799C28.9489 43.8863 28.8529 44.3397 28.6603 44.6401C28.5626 44.7797 28.4328 44.8937 28.2817 44.9724C28.1306 45.0511 27.9628 45.0921 27.7925 45.0921C27.6221 45.0921 27.4543 45.0511 27.3032 44.9724C27.1521 44.8937 27.0223 44.7797 26.9246 44.6401C26.7327 44.3363 26.6367 43.8822 26.6367 43.2779ZM27.7914 42.0489C27.6317 42.0489 27.5157 42.1455 27.4425 42.3409C27.3692 42.5362 27.3316 42.8496 27.3316 43.2779C27.3316 43.4101 27.3316 43.5312 27.3418 43.6411L28.1465 42.3551V42.3409C28.0702 42.1455 27.9522 42.0489 27.7914 42.0489V42.0489ZM27.4425 44.2118C27.5157 44.4072 27.6321 44.5048 27.7914 44.5048C27.9508 44.5048 28.0678 44.4072 28.1424 44.2118C28.2157 44.0175 28.2523 43.7031 28.2523 43.2779C28.2523 43.1151 28.2472 42.9727 28.236 42.8424L27.4221 44.1447C27.4262 44.1691 27.4343 44.1915 27.4425 44.2118V44.2118Z" fill="white"/>
<path d="M30.2871 42.5332H31.0695V43.3878H30.2871V42.5332ZM30.2871 44.161H31.0695V45.0207H30.2871V44.161Z" fill="white"/>
<path d="M32.4111 43.2779C32.4111 42.6725 32.5068 42.2178 32.699 41.9166C32.7965 41.7768 32.9264 41.6627 33.0775 41.5839C33.2285 41.505 33.3964 41.4639 33.5669 41.4639C33.7373 41.4639 33.9052 41.505 34.0563 41.5839C34.2074 41.6627 34.3372 41.7768 34.4347 41.9166C34.626 42.2191 34.7219 42.6736 34.7226 43.2799C34.7233 43.8863 34.6273 44.3397 34.4347 44.6401C34.337 44.7797 34.2072 44.8937 34.0561 44.9724C33.905 45.0511 33.7372 45.0921 33.5669 45.0921C33.3965 45.0921 33.2287 45.0511 33.0776 44.9724C32.9266 44.8937 32.7967 44.7797 32.699 44.6401C32.5071 44.3363 32.4111 43.8822 32.4111 43.2779ZM33.5638 42.0489C33.4041 42.0489 33.2881 42.1455 33.2149 42.3409C33.1416 42.5362 33.104 42.8496 33.104 43.2779C33.104 43.4101 33.104 43.5312 33.1141 43.6411L33.9189 42.3551V42.3409C33.8436 42.1455 33.7266 42.0489 33.5638 42.0489ZM33.2149 44.2118C33.2881 44.4072 33.4044 44.5048 33.5638 44.5048C33.7232 44.5048 33.8402 44.4072 33.9148 44.2118C33.9881 44.0175 34.0247 43.7031 34.0247 43.2779C34.0247 43.1151 34.0196 42.9727 34.0084 42.8424L33.1945 44.1447C33.2006 44.1691 33.2088 44.1915 33.2169 44.2118H33.2149Z" fill="white"/>
<path d="M35.2979 43.2779C35.2979 42.6726 35.3936 42.2178 35.5859 41.9167C35.6832 41.7769 35.813 41.6627 35.964 41.5839C36.115 41.505 36.2828 41.4639 36.4532 41.4639C36.6235 41.4639 36.7914 41.505 36.9424 41.5839C37.0934 41.6627 37.2231 41.7769 37.3205 41.9167C37.5124 42.2192 37.6087 42.6736 37.6094 43.2799C37.6101 43.8863 37.5138 44.3397 37.3205 44.6402C37.223 44.7798 37.0932 44.8937 36.9422 44.9724C36.7912 45.0511 36.6234 45.0922 36.4532 45.0922C36.2829 45.0922 36.1151 45.0511 35.9641 44.9724C35.8132 44.8937 35.6834 44.7798 35.5859 44.6402C35.3905 44.3363 35.2945 43.8822 35.2979 43.2779ZM36.4527 42.0489C36.2929 42.0489 36.177 42.1456 36.1037 42.3409C36.0304 42.5362 35.9928 42.8496 35.9928 43.2779C35.9928 43.4102 35.9928 43.5312 36.003 43.6411L36.8077 42.3552V42.3409C36.7304 42.1456 36.6154 42.0489 36.4527 42.0489V42.0489ZM36.1068 44.2119C36.18 44.4072 36.2963 44.5049 36.4557 44.5049C36.6151 44.5049 36.7321 44.4072 36.8067 44.2119C36.88 44.0175 36.9166 43.7032 36.9166 43.2779C36.9166 43.1151 36.9115 42.9727 36.9003 42.8425L36.0864 44.1447C36.0874 44.1691 36.0956 44.1915 36.1068 44.2119Z" fill="white"/>
<path fill-rule="evenodd" clip-rule="evenodd" d="M26.4998 3.92739C21.8527 3.91986 17.3038 5.26391 13.4071 7.7958C13.1951 7.93356 12.9115 7.87336 12.7737 7.66134C12.636 7.44931 12.6962 7.16576 12.9082 7.028C16.9538 4.39941 21.6764 3.00401 26.5009 3.01175C40.301 3.01196 51.4893 14.2046 51.4893 28.0005C51.4893 41.7967 40.2967 52.9893 26.5005 52.9893C12.7045 52.9893 1.51194 41.801 1.51175 28.0009C1.50638 24.5637 2.21211 21.1625 3.58458 18.0112C3.68554 17.7794 3.95531 17.6733 4.18712 17.7743C4.41894 17.8753 4.52502 18.145 4.42406 18.3768C3.10197 21.4125 2.42217 24.6888 2.42739 27.9998L2.42739 28.0005C2.42739 41.295 13.21 52.0736 26.5005 52.0736C39.791 52.0736 50.5737 41.291 50.5737 28.0005C50.5737 14.71 39.795 3.92739 26.5005 3.92739L26.4998 3.92739Z" fill="#FCFCFC"/>
<path d="M33.8396 22.2883L34.2832 21.8448C34.3483 21.7792 34.3849 21.6905 34.3849 21.598C34.3849 21.5056 34.3483 21.4169 34.2832 21.3513V21.3513L33.0155 20.0837C32.9831 20.0511 32.9446 20.0253 32.9021 20.0077C32.8597 19.9901 32.8142 19.981 32.7683 19.981C32.7223 19.981 32.6769 19.9901 32.6344 20.0077C32.592 20.0253 32.5535 20.0511 32.5211 20.0837L32.0775 20.5262C30.6247 19.4122 28.8784 18.7464 27.0527 18.6105V17.8851H27.8106C27.8949 17.8759 27.9723 17.8342 28.0265 17.7689C28.0806 17.7035 28.1071 17.6197 28.1006 17.5352V16.8372C28.1074 16.7527 28.0809 16.6689 28.0267 16.6037C27.9725 16.5385 27.895 16.497 27.8106 16.4883H24.8958C24.8115 16.497 24.7339 16.5385 24.6797 16.6037C24.6256 16.6689 24.599 16.7527 24.6059 16.8372V17.5352C24.5993 17.6197 24.6259 17.7035 24.68 17.7689C24.7341 17.8342 24.8115 17.8759 24.8958 17.8851H25.6538V18.6105C23.5615 18.765 21.5805 19.6128 20.0243 21.0199C18.4681 22.4269 17.4256 24.3127 17.0618 26.3789C16.698 28.4451 17.0337 30.5736 18.0157 32.4276C18.9977 34.2815 20.57 35.755 22.4837 36.6148C24.3974 37.4746 26.5432 37.6716 28.5815 37.1747C30.6197 36.6777 32.434 35.5152 33.7373 33.8711C35.0405 32.2269 35.7581 30.1952 35.7767 28.0973C35.7952 25.9994 35.1135 23.9552 33.8396 22.2883V22.2883ZM26.3527 36.0433C24.764 36.0435 23.2109 35.5725 21.8899 34.69C20.5688 33.8075 19.5392 32.5531 18.9311 31.0853C18.3231 29.6176 18.1639 28.0025 18.4738 26.4443C18.7837 24.8861 19.5487 23.4548 20.6721 22.3315C21.7955 21.2081 23.2268 20.4431 24.7849 20.1332C26.3431 19.8233 27.9582 19.9824 29.4259 20.5905C30.8937 21.1986 32.1481 22.2282 33.0306 23.5493C33.9131 24.8703 34.3841 26.4234 34.3839 28.0121C34.3839 30.1421 33.5377 32.1848 32.0316 33.691C30.5255 35.1971 28.4827 36.0433 26.3527 36.0433V36.0433Z" fill="white"/>
<path d="M26.3527 22.0752V28.0126L22.1621 32.2032C22.8521 32.8951 23.7022 33.4061 24.637 33.6906C25.5718 33.9752 26.5624 34.0246 27.5209 33.8345C28.4794 33.6444 29.3761 33.2206 30.1315 32.6007C30.8869 31.9809 31.4776 31.1841 31.8512 30.2812C32.2248 29.3783 32.3697 28.3971 32.2731 27.4247C32.1765 26.4524 31.8414 25.5189 31.2974 24.7071C30.7535 23.8953 30.0176 23.2304 29.155 22.7712C28.2924 22.3121 27.3298 22.073 26.3527 22.0752V22.0752Z" fill="white"/>
<path d="M26.4603 15.7465L27.1542 13.902C27.1609 13.8838 27.1631 13.8643 27.1607 13.845C27.1582 13.8258 27.1511 13.8075 27.14 13.7916C27.1289 13.7757 27.1141 13.7627 27.0969 13.7538C27.0797 13.7448 27.0606 13.7402 27.0412 13.7402H25.6545C25.6352 13.7403 25.6163 13.7451 25.5992 13.7541C25.5821 13.7631 25.5675 13.7761 25.5565 13.792C25.5455 13.8079 25.5385 13.8261 25.5361 13.8453C25.5337 13.8644 25.5359 13.8839 25.5426 13.902L26.2385 15.7465C26.2476 15.7684 26.263 15.7872 26.2827 15.8003C26.3025 15.8135 26.3257 15.8206 26.3494 15.8206C26.3732 15.8206 26.3964 15.8135 26.4161 15.8003C26.4358 15.7872 26.4512 15.7684 26.4603 15.7465V15.7465Z" fill="white"/>
</g>
<defs>
<clipPath id="clip0_2573_7532">
<rect width="52.0011" height="52.0011" fill="white" transform="translate(0.499023 1.99902)"/>
</clipPath>
</defs>
</svg>
