<svg width="53" height="56" viewBox="0 0 53 56" fill="none" xmlns="http://www.w3.org/2000/svg">
<rect width="53" height="56" fill="white"/>
<g clip-path="url(#clip0_2573_7530)">
<path d="M24.5241 33.3998H4.25221C1.9809 33.3998 0.139649 31.486 0.139649 29.1252L0.139648 20.9396C0.139648 18.5788 1.9809 16.665 4.25221 16.665H24.5241V33.3998Z" fill="#4519FE"/>
<path d="M28.5322 16.665H48.8042C51.0755 16.665 52.9168 18.5788 52.9168 20.9396V29.1252C52.9168 31.486 51.0755 33.3997 48.8042 33.3997H28.5322V16.665Z" fill="#4519FE"/>
<path d="M8.76349 29.6801C8.83668 29.6801 8.91069 29.6645 8.97931 29.6312C9.19832 29.5246 9.27913 29.2817 9.15946 29.0881L6.56856 24.8713L9.15946 20.6548C9.27958 20.4609 9.19832 20.2176 8.97977 20.1114C8.76123 20.0056 8.48667 20.0773 8.36744 20.2713L5.65811 24.6798C5.58402 24.7996 5.58402 24.9444 5.65811 25.0633L8.36744 29.4718C8.44916 29.6048 8.60352 29.6802 8.76341 29.6802L8.76349 29.6801Z" fill="white"/>
<path d="M43.8744 20.0626C43.8013 20.0626 43.7272 20.0782 43.6585 20.1115C43.4395 20.2181 43.3588 20.461 43.4784 20.6545L46.0693 24.8713L43.4784 29.0878C43.3583 29.2818 43.4395 29.5251 43.6582 29.6313C43.8766 29.7371 44.1512 29.6654 44.2705 29.4714L46.9797 25.0629C47.0538 24.9431 47.0538 24.7983 46.9797 24.6794L44.2705 20.2709C44.1887 20.1378 44.0344 20.0625 43.8745 20.0625L43.8744 20.0626Z" fill="white"/>
<path d="M19.6377 15.1568C19.6377 14.8027 19.9139 14.5156 20.2545 14.5156H32.282C32.6229 14.5156 32.899 14.8027 32.899 15.1568V34.5862C32.899 34.9403 32.6229 35.2274 32.282 35.2274H20.2545C19.9139 35.2274 19.6377 34.9403 19.6377 34.5862V15.1568Z" fill="#4519FE"/>
<path d="M27.7174 20.6665C27.6231 20.6289 27.5164 20.6683 27.4659 20.7593L26.4461 22.5954C26.367 22.7379 26.1691 22.7379 26.0899 22.5955L25.07 20.7592C25.0195 20.6683 24.9128 20.6289 24.8185 20.6665L21.9847 21.7942C21.8937 21.8305 21.8397 21.928 21.8552 22.028L22.1078 23.6515C22.124 23.755 22.21 23.8311 22.3109 23.8311H23.3305C23.444 23.8311 23.536 23.9267 23.536 24.0448V29.0175C23.536 29.0857 23.5895 29.1411 23.6553 29.1411H28.9401C29.006 29.1411 29.0593 29.0857 29.0593 29.0175L29.0595 24.045C29.0595 23.9269 29.1516 23.8312 29.2651 23.8312H30.225C30.3259 23.8312 30.4119 23.7552 30.4279 23.6517L30.6809 22.0282C30.6964 21.9282 30.6424 21.8306 30.5514 21.7944L27.7174 20.6665Z" fill="white"/>
<path d="M19.6377 37.5379C19.6377 37.0478 20.0199 36.6504 20.4914 36.6504H32.0453C32.5167 36.6504 32.899 37.0478 32.899 37.5379C32.899 38.0279 32.5167 38.4253 32.0453 38.4253H20.4914C20.0199 38.4253 19.6377 38.0279 19.6377 37.5379Z" fill="#4519FE"/>
<path d="M23.6016 30.3557C23.6016 30.2186 23.7084 30.1074 23.8404 30.1074H28.7699C28.9019 30.1074 29.0088 30.2186 29.0088 30.3557C29.0088 30.4928 28.9019 30.6039 28.7699 30.6039H23.8404C23.7084 30.6039 23.6016 30.4928 23.6016 30.3557Z" fill="white"/>
<path d="M22.0889 40.453C22.0889 39.9628 22.4712 39.5654 22.9428 39.5654H29.1686C29.6401 39.5654 30.0223 39.9628 30.0223 40.453C30.0223 40.943 29.6401 41.3404 29.1686 41.3404H22.9428C22.4712 41.3404 22.0889 40.943 22.0889 40.453Z" fill="#4519FE"/>
</g>
<defs>
<clipPath id="clip0_2573_7530">
<rect width="53" height="27" fill="white" transform="translate(0 14.5)"/>
</clipPath>
</defs>
</svg>
