<svg width="53" height="56" viewBox="0 0 53 56" fill="none" xmlns="http://www.w3.org/2000/svg">
<rect width="53" height="56" fill="white"/>
<g clip-path="url(#clip0_2573_7531)">
<path d="M53 53.5309V2.46912C53 1.93389 52.5661 1.5 52.0309 1.5L0.96912 1.5C0.433887 1.5 0 1.93389 0 2.46912V53.5309C0 54.0661 0.433887 54.5 0.96912 54.5H52.0309C52.5661 54.5 53 54.0661 53 53.5309Z" fill="#25D366"/>
<path d="M36.0259 18.4681C34.5176 16.9541 32.6699 15.8216 30.6363 15.1646C28.6026 14.5075 26.4416 14.345 24.3326 14.6903C21.6105 15.1476 19.0923 16.4232 17.1132 18.3473C15.1341 20.2714 13.7881 22.7528 13.2544 25.4609C12.7146 28.2565 13.0806 31.1513 14.299 33.7246L13.5562 37.4386C13.4652 37.9156 13.4923 38.4075 13.6351 38.8716C13.7779 39.3357 14.0321 39.7578 14.3754 40.1012C14.7188 40.4445 15.1409 40.6987 15.605 40.8415C16.0691 40.9843 16.5611 41.0114 17.0381 40.9205L20.7463 40.1777C23.3212 41.3966 26.2156 41.7703 29.0157 41.2454C31.7281 40.716 34.2145 39.3718 36.1431 37.3924C38.0717 35.413 39.3508 32.8925 39.8095 30.1673C40.1551 28.0568 39.9921 25.8944 39.334 23.8597C38.676 21.8249 37.5418 19.9765 36.0259 18.4681V18.4681ZM33.3565 33.3648L30.4549 35.2276C30.0948 35.4421 29.6853 35.5597 29.2663 35.5688C28.8473 35.578 28.4331 35.4784 28.064 35.2798C24.3129 33.2518 21.2382 30.1691 19.22 26.4126C19.0209 26.0427 18.9211 25.6274 18.9303 25.2074C18.9394 24.7874 19.0572 24.3769 19.2723 24.0159L21.1351 21.1144C21.2686 20.9082 21.45 20.7373 21.6638 20.6162C21.8776 20.4951 22.1174 20.4274 22.3629 20.4188C22.6085 20.4103 22.8525 20.4611 23.0741 20.5671C23.2958 20.673 23.4886 20.8309 23.6362 21.0273L24.9013 22.7102C25.0927 22.963 25.2038 23.2673 25.2204 23.5839C25.2369 23.9004 25.1581 24.2147 24.9941 24.486L23.938 26.2269C24.9949 27.9859 26.4675 29.4585 28.2265 30.5155L29.9674 29.4593C30.2387 29.2953 30.553 29.2165 30.8696 29.2331C31.1861 29.2496 31.4905 29.3608 31.7432 29.5521L33.4261 30.8114C33.6234 30.9593 33.782 31.1528 33.8882 31.3753C33.9944 31.5978 34.0451 31.8428 34.036 32.0892C34.0268 32.3356 33.9581 32.5761 33.8358 32.7902C33.7134 33.0043 33.541 33.1855 33.3332 33.3184L33.3565 33.3648Z" fill="white"/>
<path d="M32.4971 1.5H51.8737C52.1723 1.5 52.4587 1.61861 52.6698 1.82974C52.8809 2.04087 52.9995 2.32722 52.9995 2.62581V12.9554H33.6171C33.3195 12.9538 33.0346 12.8346 32.8248 12.6236C32.6149 12.4126 32.4971 12.1272 32.4971 11.8296V1.5Z" fill="#435A64"/>
<path d="M38.8805 4.58737C39.0815 4.5824 39.2813 4.61843 39.4679 4.69326C39.6545 4.76809 39.8239 4.88015 39.9657 5.0226C40.1093 5.16024 40.2226 5.32626 40.2986 5.51009C40.3745 5.69392 40.4113 5.89154 40.4067 6.09038C40.4112 6.28834 40.3743 6.48507 40.2984 6.66794C40.2224 6.85082 40.1091 7.01581 39.9657 7.15235C39.8239 7.2948 39.6545 7.40686 39.4679 7.48169C39.2813 7.55652 39.0815 7.59255 38.8805 7.58758H38.1145V9.04417H37.2324V4.58737H38.8805ZM38.8805 6.76354C38.9678 6.76546 39.0545 6.74945 39.1354 6.71652C39.2162 6.68358 39.2895 6.6344 39.3506 6.57204C39.4719 6.44161 39.5366 6.26841 39.5305 6.09038C39.5343 6.00126 39.5203 5.91227 39.4894 5.82859C39.4586 5.7449 39.4113 5.66819 39.3506 5.60291C39.2895 5.54055 39.2162 5.49137 39.1354 5.45843C39.0545 5.4255 38.9678 5.40949 38.8805 5.41141H38.1145V6.76354H38.8805Z" fill="#4BF233"/>
<path d="M43.4537 9.04393L42.5485 7.4945H41.8811V9.04393H40.999V4.58713H42.7864C42.9828 4.58374 43.1779 4.62061 43.3595 4.69547C43.5411 4.77032 43.7055 4.88157 43.8426 5.02236C43.9827 5.15741 44.0937 5.3198 44.1686 5.49948C44.2434 5.67916 44.2806 5.87229 44.2778 6.06693C44.2775 6.34221 44.1946 6.61108 44.0399 6.83874C43.8859 7.07262 43.6685 7.25781 43.4131 7.37263L44.3997 9.05554L43.4537 9.04393ZM41.8811 5.41117V6.72268H42.7864C42.8678 6.72176 42.9481 6.70371 43.0221 6.66972C43.0961 6.63573 43.1621 6.58655 43.2158 6.52537C43.3316 6.39734 43.3958 6.23086 43.3958 6.05822C43.3958 5.88558 43.3316 5.7191 43.2158 5.59107C43.1616 5.53095 43.0953 5.48286 43.0214 5.44988C42.9474 5.41689 42.8674 5.39976 42.7864 5.39957L41.8811 5.41117Z" fill="#4BF233"/>
<path d="M48.6307 8.46359C48.4195 8.68065 48.1668 8.8531 47.8877 8.97073C47.6086 9.08835 47.3087 9.14876 47.0058 9.14836C46.3902 9.14836 45.7998 8.9038 45.3644 8.46848C44.9291 8.03317 44.6846 7.44275 44.6846 6.82711C44.6846 6.21148 44.9291 5.62106 45.3644 5.18574C45.7998 4.75042 46.3902 4.50586 47.0058 4.50586C47.6215 4.50586 48.2119 4.75042 48.6472 5.18574C49.0825 5.62106 49.3271 6.21148 49.3271 6.82711C49.3279 7.13283 49.2665 7.43552 49.1468 7.71682C49.0271 7.99813 48.8515 8.25219 48.6307 8.46359V8.46359ZM45.9555 7.88328C46.232 8.14789 46.5999 8.29559 46.9826 8.29559C47.3653 8.29559 47.7333 8.14789 48.0098 7.88328C48.1476 7.74642 48.2555 7.58234 48.3264 7.40149C48.3973 7.22065 48.4298 7.02701 48.4218 6.83291C48.4304 6.64167 48.4002 6.45065 48.3329 6.27143C48.2656 6.0922 48.1627 5.92847 48.0303 5.79015C47.898 5.65183 47.7389 5.54178 47.5628 5.46667C47.3868 5.39155 47.1973 5.35292 47.0058 5.35312C46.8151 5.34836 46.6254 5.38302 46.4487 5.45491C46.2719 5.5268 46.1119 5.63439 45.9787 5.77094C45.8403 5.90773 45.7318 6.07166 45.6599 6.25243C45.588 6.43319 45.5543 6.62688 45.5608 6.82131C45.5493 7.01602 45.5784 7.21101 45.6463 7.39385C45.7143 7.5767 45.8195 7.74338 45.9555 7.88328V7.88328Z" fill="#4BF233"/>
</g>
<defs>
<clipPath id="clip0_2573_7531">
<rect width="53" height="53" fill="white" transform="translate(0 1.5)"/>
</clipPath>
</defs>
</svg>
