<svg width="631" height="114" viewBox="0 0 631 114" fill="none" xmlns="http://www.w3.org/2000/svg">
<path d="M202.381 78.7014C195.985 85.0411 187.664 87.9846 178.664 87.9846C155.512 87.9846 145.663 72.022 145.606 55.7763C145.493 39.474 156.135 22.8887 178.664 22.8887C187.154 22.8887 195.136 26.1152 201.589 32.3984L193.721 39.9835C189.645 35.9645 184.098 34.0965 178.664 34.0965C163.607 34.0965 157.097 45.3044 157.154 55.7763C157.267 66.135 163.211 76.89 178.664 76.89C184.098 76.89 190.268 74.6824 194.343 70.5502L202.381 78.7014Z" fill="#0058D6"/>
<path d="M221.116 24.2461V86.5683H210.305V24.2461H221.116Z" fill="#0058D6"/>
<path d="M267.816 42.5904H278.232V86.5159H267.986L267.477 80.1196C264.986 85.2707 258.137 87.7613 253.212 87.8745C240.193 87.9877 230.57 79.9497 230.57 64.4965C230.57 49.3264 240.646 41.4017 253.495 41.5149C259.382 41.5149 264.986 44.2885 267.477 48.6471L267.816 42.5904ZM241.438 64.5532C241.438 72.9307 247.212 77.912 254.458 77.912C271.552 77.912 271.552 51.251 254.458 51.251C247.212 51.251 241.438 56.1756 241.438 64.5532Z" fill="#0058D6"/>
<path d="M317.617 54.2438C314.504 51.3004 310.938 50.3381 306.749 50.3381C301.598 50.3381 298.711 51.9231 298.711 54.6967C298.711 57.527 301.315 59.1685 306.919 59.5081C315.183 60.0176 325.712 61.9422 325.712 73.6028C325.712 81.3577 319.372 88.0371 306.806 88.0371C299.843 88.0371 292.881 86.905 286.484 80.169L291.862 72.4141C296.051 76.7726 302.107 78.4708 307.032 78.584C311.108 78.6972 314.957 76.9991 314.957 73.7726C314.957 70.7159 312.466 69.0744 306.24 68.6781C297.975 68.0555 288.069 64.9988 288.069 55.0363C288.069 44.8474 298.598 41.2812 306.636 41.2812C313.485 41.2812 318.693 42.6398 323.731 47.055L317.617 54.2438Z" fill="#0058D6"/>
<path d="M361.953 54.2438C358.84 51.3004 355.274 50.3381 351.085 50.3381C345.934 50.3381 343.047 51.9231 343.047 54.6967C343.047 57.527 345.651 59.1685 351.255 59.5081C359.519 60.0176 370.048 61.9422 370.048 73.6028C370.048 81.3577 363.708 88.0371 351.142 88.0371C344.179 88.0371 337.217 86.905 330.82 80.169L336.198 72.4141C340.387 76.7726 346.443 78.4708 351.368 78.584C355.444 78.6972 359.293 76.9991 359.293 73.7726C359.293 70.7159 356.802 69.0744 350.575 68.6781C342.311 68.0555 332.405 64.9988 332.405 55.0363C332.405 44.8474 342.934 41.2812 350.972 41.2812C357.821 41.2812 363.029 42.6398 368.066 47.055L361.953 54.2438Z" fill="#0058D6"/>
<path d="M421.22 42.5878L393.597 106.665H381.653L390.653 85.7776L373.105 42.5312H385.785L392.464 61.494L396.653 73.8905L401.182 61.777L409.22 42.5312H421.22V42.5878Z" fill="#0058D6"/>
<path d="M484.727 54.813C485.01 70.6058 475.387 86.5684 453.537 86.5684C445.896 86.5684 436.669 86.5684 429.027 86.5684V24.1896C436.669 24.1896 445.896 24.1896 453.537 24.1896C474.934 24.133 484.444 39.3598 484.727 54.813ZM440.688 75.2474H453.537C467.689 75.2474 473.349 64.8887 473.066 54.7564C472.783 45.0203 467.066 35.3408 453.537 35.3408H440.688V75.2474Z" fill="#091C3A"/>
<path d="M502.552 68.4517C503.287 73.8858 507.986 77.7915 515.684 77.7915C519.703 77.7915 524.967 76.2632 527.458 73.716L534.42 80.5652C529.779 85.3766 522.194 87.6974 515.514 87.6974C500.344 87.6974 491.344 78.3577 491.344 64.263C491.344 50.9042 500.457 41.2812 514.722 41.2812C529.439 41.2812 538.609 50.3947 536.911 68.4517H502.552V68.4517ZM526.439 59.4515C525.703 53.7344 521.288 50.9041 515.005 50.9041C509.118 50.9041 504.306 53.7344 502.721 59.4515H526.439Z" fill="#091C3A"/>
<path d="M588.826 42.5312L570.09 86.7398H558.316L539.523 42.5312H551.354L557.411 57.0787L564.203 75.6452L570.883 57.3052L576.939 42.5878H588.826V42.5312Z" fill="#091C3A"/>
<path d="M622.395 54.2438C619.281 51.3004 615.715 50.3381 611.526 50.3381C606.375 50.3381 603.488 51.9231 603.488 54.6967C603.488 57.527 606.092 59.1685 611.696 59.5081C619.96 60.0176 630.489 61.9422 630.489 73.6028C630.489 81.3577 624.149 88.0371 611.583 88.0371C604.621 88.0371 597.658 86.905 591.262 80.169L596.639 72.4141C600.828 76.7726 606.885 78.4708 611.809 78.584C615.885 78.6972 619.734 76.9991 619.734 73.7726C619.734 70.7159 617.243 69.0744 611.017 68.6781C602.753 68.0555 592.847 64.9988 592.847 55.0363C592.847 44.8474 603.375 41.2812 611.413 41.2812C618.262 41.2812 623.47 42.6398 628.508 47.055L622.395 54.2438Z" fill="#091C3A"/>
<path d="M60.0153 23.2852L54.5812 39.1912H46.7131C31.6561 39.1912 16.2029 47.3423 16.2029 62.3993V79.6638H39.0714L33.6373 95.5699H0.296875V62.3993C0.296875 39.0214 23.3352 23.2852 46.7131 23.2852H60.0153Z" fill="#0058D6"/>
<path d="M119.731 23.2246V50.9045C119.731 74.1126 103.712 96.2452 80.5036 96.2452H64.4844L69.9185 81.1882H80.164C95.221 81.1882 104.674 65.5652 104.674 50.5648V38.3381H85.4283L90.8624 23.2812H119.731V23.2246Z" fill="#091C3A"/>
<path opacity="0.1" d="M90.5271 5.22527L76.3192 0.0742188L37.1484 108.586L51.2997 113.737L90.5271 5.22527Z" fill="#091C3A"/>
</svg>
