<svg width="53" height="56" viewBox="0 0 53 56" fill="none" xmlns="http://www.w3.org/2000/svg">
<rect width="53" height="56" fill="white"/>
<path d="M0.0322266 6.56524C0.0322266 4.05417 2.06785 2.01855 4.57891 2.01855H48.4219C50.933 2.01855 52.9686 4.05418 52.9686 6.56524V49.434C52.9686 51.9451 50.933 53.9807 48.4219 53.9807H4.57891C2.06785 53.9807 0.0322266 51.9451 0.0322266 49.434V6.56524Z" fill="#5E35B1"/>
<path d="M16.4818 18.3877L12.7249 14.7836L22.5405 14.5798L22.7447 24.3959L18.9878 20.7917C15.024 24.9477 15.1601 31.5248 19.2926 35.5131C20.5349 36.6603 22.0213 37.5108 23.6402 38L23.7166 41.6793C21.1679 41.0554 18.8191 39.7958 16.8902 38.0173C11.3779 32.7003 11.1954 23.9294 16.4818 18.3877ZM34.0139 35.2066C37.9777 31.0506 37.8416 24.4736 33.7091 20.4853C32.4668 19.3381 30.9804 18.4876 29.3614 17.9984L29.2851 14.3191C31.8338 14.943 34.1826 16.2026 36.1115 17.981C41.6225 23.2985 41.805 32.0686 36.5199 37.6106L40.2768 41.2148L30.4612 41.4185L30.2569 31.6025L34.0139 35.2066Z" fill="white"/>
<path fill-rule="evenodd" clip-rule="evenodd" d="M16.4818 18.3883C11.1954 23.9299 11.3779 32.7009 16.8902 38.0179C18.6112 39.6047 20.6666 40.7784 22.8999 41.4561C23.1697 41.5379 23.442 41.6125 23.7166 41.6798L23.6402 38.0005C22.0213 37.5113 20.5349 36.6608 19.2926 35.5136C15.3567 31.7151 15.046 25.5682 18.4499 21.4013C18.6199 21.1932 18.7992 20.99 18.9878 20.7923L22.7447 24.3964L22.5405 14.5803L12.7249 14.7841L16.4818 18.3883ZM19.0378 21.9654L23.5972 26.3393L23.3354 13.7518L10.7483 14.0131L15.3513 18.4288C10.3189 24.3108 10.6883 33.1638 16.3266 38.6022L16.3332 38.6086L16.3399 38.6148C18.3698 40.4864 20.8416 41.8119 23.5236 42.4684L24.5503 42.7197L24.4397 37.3939L23.8751 37.2233C22.3767 36.7706 21.0008 35.984 19.85 34.9232C16.2423 31.435 15.9444 25.805 19.0378 21.9654ZM29.3614 17.9989C30.9804 18.4881 32.4668 19.3386 33.7091 20.4858C37.645 24.2843 37.9557 30.4312 34.5518 34.5981C34.3818 34.8062 34.2025 35.0094 34.0139 35.2071L30.257 31.603L30.4612 41.4191L40.2768 41.2153L36.5199 37.6111C41.805 32.0691 41.6225 23.299 36.1115 17.9816C34.3905 16.3948 32.3351 15.221 30.1018 14.5433C29.832 14.4615 29.5597 14.3869 29.2851 14.3196L29.3614 17.9989ZM37.6503 37.5705L42.2534 41.9863L29.6663 42.2477L29.4044 29.6601L33.9639 34.034C37.0573 30.1944 36.7594 24.5644 33.1517 21.0762C32.0009 20.0154 30.6249 19.2288 29.1266 18.7761L28.562 18.6055L28.4514 13.2797L29.4781 13.531C32.1601 14.1875 34.6319 15.513 36.6618 17.3847L36.6686 17.3909L36.6752 17.3973C42.3121 22.8362 42.6815 31.6883 37.6503 37.5705Z" fill="white"/>
</svg>
